<svg width="18" height="18" viewBox="0 0 18 18" fill="none" xmlns="http://www.w3.org/2000/svg">
<g id="interface/bookmark">
<path id="Vector" d="M2.63625 17.1562C2.75339 17.2211 2.88577 17.2535 3.01964 17.2499C3.1535 17.2464 3.28398 17.207 3.3975 17.136L9 13.6343L14.6025 17.136C14.716 17.207 14.8465 17.2462 14.9803 17.2497C15.1141 17.2533 15.2465 17.2209 15.3636 17.156C15.4807 17.0911 15.5783 16.996 15.6462 16.8807C15.7142 16.7653 15.75 16.6339 15.75 16.5V3C15.75 2.40326 15.5129 1.83097 15.091 1.40901C14.669 0.987053 14.0967 0.75 13.5 0.75H4.5C3.90326 0.75 3.33097 0.987053 2.90901 1.40901C2.48705 1.83097 2.25 2.40326 2.25 3V16.5C2.24994 16.6339 2.28572 16.7654 2.35364 16.8808C2.42157 16.9962 2.51915 17.0913 2.63625 17.1562ZM3.75 3C3.75 2.80109 3.82902 2.61032 3.96967 2.46967C4.11032 2.32902 4.30109 2.25 4.5 2.25H13.5C13.6989 2.25 13.8897 2.32902 14.0303 2.46967C14.171 2.61032 14.25 2.80109 14.25 3V15.15L9.3975 12.117C9.2783 12.0425 9.14056 12.003 9 12.003C8.85944 12.003 8.7217 12.0425 8.6025 12.117L3.75 15.15V3Z" fill="#111111"/>
</g>
</svg>
