<svg width="24" height="25" viewBox="0 0 24 25" fill="none" xmlns="http://www.w3.org/2000/svg">
<g id="Group">
<g id="Group_2">
<path id="Path" d="M19.0742 19.1875L16.9492 14.9375L14.8242 19.1875" stroke="#323232" stroke-width="1.5" stroke-linecap="round" stroke-linejoin="round"/>
<path id="Path_2" d="M15.1992 18.4375H18.6992" stroke="#323232" stroke-width="1.5" stroke-linecap="round" stroke-linejoin="round"/>
<path id="Path_3" fill-rule="evenodd" clip-rule="evenodd" d="M16.9504 22.5023V22.5023C14.1614 22.5023 11.9004 20.2413 11.9004 17.4523V17.4523C11.9004 14.6633 14.1614 12.4023 16.9504 12.4023V12.4023C19.7394 12.4023 22.0004 14.6633 22.0004 17.4523V17.4523C22.0004 20.2413 19.7394 22.5023 16.9504 22.5023Z" stroke="#323232" stroke-width="1.5" stroke-linecap="round" stroke-linejoin="round"/>
<path id="Path_4" fill-rule="evenodd" clip-rule="evenodd" d="M5.09961 2.60156H8.99961C10.6566 2.60156 11.9996 3.94456 11.9996 5.60156V9.50156C11.9996 11.1586 10.6566 12.5016 8.99961 12.5016H5.09961C3.44261 12.5016 2.09961 11.1586 2.09961 9.50156V5.60156C2.09961 3.94456 3.44261 2.60156 5.09961 2.60156Z" stroke="#323232" stroke-width="1.5" stroke-linecap="round" stroke-linejoin="round"/>
<path id="Path_5" d="M9.0693 6.42969H5.0293" stroke="#323232" stroke-width="1.5" stroke-linecap="round" stroke-linejoin="round"/>
<path id="Path_6" d="M7.04883 5.74984V6.42984" stroke="#323232" stroke-width="1.5" stroke-linecap="round" stroke-linejoin="round"/>
<path id="Path_7" d="M8.06239 6.42578C8.06239 8.16578 6.70239 9.57578 5.02539 9.57578" stroke="#323232" stroke-width="1.5" stroke-linecap="round" stroke-linejoin="round"/>
<path id="Path_8" d="M9.07537 9.57812C8.34737 9.57812 7.69638 9.19012 7.23438 8.57812" stroke="#323232" stroke-width="1.5" stroke-linecap="round" stroke-linejoin="round"/>
</g>
<g id="Group_3">
<path id="Path_9" d="M14.5645 5.41406H16.0305C18.0545 5.41406 19.6945 7.05506 19.6945 9.07806" stroke="#323232" stroke-width="1.5" stroke-linecap="round" stroke-linejoin="round"/>
<path id="Path_10" d="M14.5645 5.41406L15.6635 6.51306" stroke="#323232" stroke-width="1.5" stroke-linecap="round" stroke-linejoin="round"/>
<path id="Path_11" d="M15.6635 4.31641L14.5645 5.41541" stroke="#323232" stroke-width="1.5" stroke-linecap="round" stroke-linejoin="round"/>
<path id="Path_12" d="M9.43469 19.5859H7.96869C5.94469 19.5859 4.30469 17.9449 4.30469 15.9219" stroke="#323232" stroke-width="1.5" stroke-linecap="round" stroke-linejoin="round"/>
<path id="Path_13" d="M9.43494 19.5834L8.33594 18.4844" stroke="#323232" stroke-width="1.5" stroke-linecap="round" stroke-linejoin="round"/>
<path id="Path_14" d="M8.33594 20.6849L9.43494 19.5859" stroke="#323232" stroke-width="1.5" stroke-linecap="round" stroke-linejoin="round"/>
</g>
</g>
</svg>
