<svg width="221" height="221" viewBox="0 0 221 221" fill="none" xmlns="http://www.w3.org/2000/svg">
<path id="Subtract" fill-rule="evenodd" clip-rule="evenodd" d="M24.7715 46.4482C22.7254 45.7264 20.4386 46.4233 19.2141 48.2145C7.09049 65.9487 0 87.3963 0 110.5C0 171.527 49.4725 221 110.5 221C171.527 221 221 171.527 221 110.5C221 49.4725 171.527 0 110.5 0C109.692 0 108.886 0.00867656 108.082 0.0259416C106.1 0.0684955 104.377 1.36455 103.717 3.23388C102.532 6.59506 105.23 10.0735 108.794 10.0142C109.362 10.0047 109.93 10 110.5 10C166.005 10 211 54.9954 211 110.5C211 166.005 166.005 211 110.5 211C54.9954 211 10 166.005 10 110.5C10 89.6625 16.3417 70.3061 27.2002 54.2556C29.0846 51.4703 27.9428 47.567 24.7715 46.4482Z" fill="url(#paint0_linear_1946_4027)"/>
<defs>
<linearGradient id="paint0_linear_1946_4027" x1="161.5" y1="18" x2="16.9102" y2="48.5753" gradientUnits="userSpaceOnUse">
<stop stop-color="#4931A8"/>
<stop offset="1" stop-color="#4931A8" stop-opacity="0.4"/>
</linearGradient>
</defs>
</svg>
