<svg width="54" height="54" viewBox="0 0 54 54" fill="none" xmlns="http://www.w3.org/2000/svg">
<g id="Group">
<g id="Group_2">
<path id="Path" d="M45 30.9555V13.5742" stroke="#4931A8" stroke-width="3" stroke-linecap="round" stroke-linejoin="round"/>
<path id="Path_2" d="M29.313 40.5H11.25C7.52175 40.5 4.5 37.4782 4.5 33.75V13.5742" stroke="#4931A8" stroke-width="3" stroke-linecap="round" stroke-linejoin="round"/>
<path id="Path_3" fill-rule="evenodd" clip-rule="evenodd" d="M20.556 24.7905L6.94125 17.6198C5.4405 16.8278 4.5 15.2708 4.5 13.5742V13.5C4.5 11.0137 6.51375 9 9 9H40.4258C42.9525 9 45 11.0475 45 13.5742V13.6192C45 15.2887 44.0752 16.8232 42.597 17.6017L28.944 24.7928C26.3183 26.1743 23.1818 26.1743 20.556 24.7905Z" stroke="#4931A8" stroke-width="3" stroke-linecap="round" stroke-linejoin="round"/>
<g id="Path_4">
<path fill-rule="evenodd" clip-rule="evenodd" d="M46.5351 32.2251C50.4883 36.1896 50.4883 42.6201 46.5373 46.5868C42.6673 50.4703 36.0861 50.4703 32.2138 46.5868C28.2606 42.6201 28.2628 36.1896 32.2161 32.2251C36.1693 28.2583 42.5818 28.2583 46.5351 32.2251Z" fill="#4931A8"/>
<path d="M46.5351 32.2251C50.4883 36.1896 50.4883 42.6201 46.5373 46.5868C42.6673 50.4703 36.0861 50.4703 32.2138 46.5868C28.2606 42.6201 28.2628 36.1896 32.2161 32.2251C36.1693 28.2583 42.5818 28.2583 46.5351 32.2251" stroke="#4931A8" stroke-width="3" stroke-linecap="round" stroke-linejoin="round"/>
</g>
<path id="Path_5" d="M43.3125 37.4688L38.3895 42.3918L35.4375 39.4375" stroke="white" stroke-width="3" stroke-linecap="round" stroke-linejoin="round"/>
</g>
</g>
</svg>
