<svg width="20" height="20" viewBox="0 0 20 20" fill="none" xmlns="http://www.w3.org/2000/svg">
<g id="Group">
<path id="Path" d="M12.1312 11.2997C11.5982 12.1984 10.563 12.6713 9.53482 12.4859C8.50661 12.3004 7.70186 11.4957 7.51641 10.4675C7.33097 9.43925 7.80389 8.40405 8.70252 7.87109" stroke="#323232" stroke-width="1.5" stroke-linecap="round" stroke-linejoin="round"/>
<path id="Path_2" d="M14.9983 14.1635C13.561 15.2537 11.8052 15.8413 10.0012 15.8358C7.01191 15.889 4.24995 14.2461 2.86986 11.594C2.37411 10.5891 2.37411 9.41085 2.86986 8.406C3.56006 7.03152 4.66031 5.90547 6.01843 5.18359" stroke="#323232" stroke-width="1.5" stroke-linecap="round" stroke-linejoin="round"/>
<path id="Path_3" d="M17.0226 11.7798C17.0561 11.7165 17.0996 11.6596 17.1312 11.5951C17.627 10.5902 17.627 9.41192 17.1312 8.40708C15.7511 5.75493 12.9892 4.11208 9.99989 4.16532C9.81249 4.16532 9.63032 4.19033 9.44531 4.20252" stroke="#323232" stroke-width="1.5" stroke-linecap="round" stroke-linejoin="round"/>
<path id="Path_4" d="M17.5026 16.6687L3.33008 2.49609" stroke="#323232" stroke-width="1.5" stroke-linecap="round" stroke-linejoin="round"/>
</g>
</svg>
