<svg width="20" height="20" viewBox="0 0 20 20" fill="none" xmlns="http://www.w3.org/2000/svg">
<g id="Group">
<g id="Group_2">
<path id="Path" d="M11.7674 8.23312C12.7433 9.20896 12.7433 10.7931 11.7674 11.7706C10.7916 12.7465 9.20742 12.7465 8.22992 11.7706C7.25409 10.7948 7.25409 9.21062 8.22992 8.23312C9.20742 7.25563 10.7908 7.25563 11.7674 8.23312" stroke="#323232" stroke-width="1.5" stroke-linecap="round" stroke-linejoin="round"/>
<path id="Path_2" fill-rule="evenodd" clip-rule="evenodd" d="M2.5 10.0013C2.5 9.45214 2.62667 8.9088 2.87167 8.40797V8.40797C4.13417 5.82714 6.92417 4.16797 10 4.16797C13.0758 4.16797 15.8658 5.82714 17.1283 8.40797V8.40797C17.3733 8.9088 17.5 9.45214 17.5 10.0013C17.5 10.5505 17.3733 11.0938 17.1283 11.5946V11.5946C15.8658 14.1755 13.0758 15.8346 10 15.8346C6.92417 15.8346 4.13417 14.1755 2.87167 11.5946V11.5946C2.62667 11.0938 2.5 10.5505 2.5 10.0013Z" stroke="#323232" stroke-width="1.5" stroke-linecap="round" stroke-linejoin="round"/>
</g>
</g>
</svg>
