<svg width="24" height="25" viewBox="0 0 24 25" fill="none" xmlns="http://www.w3.org/2000/svg">
<g id="Group">
<g id="Group_2">
<path id="Path" d="M20 3.5V7.5" stroke="white" stroke-width="1.5" stroke-linecap="round" stroke-linejoin="round"/>
<path id="Path_2" d="M18 5.5H22" stroke="white" stroke-width="1.5" stroke-linecap="round" stroke-linejoin="round"/>
<path id="Path_3" d="M14 5.5H5C3.895 5.5 3 6.395 3 7.5V19.5C3 20.605 3.895 21.5 5 21.5H18C19.105 21.5 20 20.605 20 19.5V11.5" stroke="white" stroke-width="1.5" stroke-linecap="round" stroke-linejoin="round"/>
<path id="Path_4" fill-rule="evenodd" clip-rule="evenodd" d="M6.96642 14.9666L8.47042 12.5806C8.81942 12.0276 9.59642 11.9526 10.0444 12.4286L11.1194 13.5706L12.2464 11.1756C12.5934 10.4376 13.6314 10.4036 14.0264 11.1176L16.1804 15.0156C16.5484 15.6826 16.0654 16.4996 15.3044 16.4996H7.81242C7.02442 16.4996 6.54642 15.6326 6.96642 14.9666Z" stroke="white" stroke-width="1.5" stroke-linecap="round" stroke-linejoin="round"/>
</g>
</g>
</svg>
