<svg width="81" height="80" viewBox="0 0 81 80" fill="none" xmlns="http://www.w3.org/2000/svg">
<g id="image 313">
<path id="Vector" d="M45.5586 30C44.2325 30 42.9607 29.4732 42.0231 28.5355C41.0854 27.5979 40.5586 26.3261 40.5586 25C40.5586 23.6739 41.0854 22.4021 42.0231 21.4645C42.9607 20.5268 44.2325 20 45.5586 20C46.8847 20 48.1564 20.5268 49.0941 21.4645C50.0318 22.4021 50.5586 23.6739 50.5586 25C50.5586 26.3261 50.0318 27.5979 49.0941 28.5355C48.1564 29.4732 46.8847 30 45.5586 30Z" fill="#D8D8FF"/>
<path id="Vector_2" d="M63.8932 6.66797H17.2266C14.5768 6.67588 12.0379 7.73199 10.1642 9.60564C8.29059 11.4793 7.23448 14.0182 7.22656 16.668V46.2013L20.1599 33.268C22.0656 31.4542 24.5957 30.4426 27.2266 30.4426C29.8574 30.4426 32.3876 31.4542 34.2932 33.268L43.8632 42.8913L46.8232 39.9313C48.702 38.0631 51.2437 37.0144 53.8932 37.0144C56.5427 37.0144 59.0845 38.0631 60.9632 39.9313L73.8932 52.868V16.668C73.8853 14.0182 72.8292 11.4793 70.9556 9.60564C69.0819 7.73199 66.543 6.67588 63.8932 6.66797ZM45.5599 30.0013C44.2338 30.0013 42.962 29.4745 42.0244 28.5368C41.0867 27.5992 40.5599 26.3274 40.5599 25.0013C40.5599 23.6752 41.0867 22.4035 42.0244 21.4658C42.962 20.5281 44.2338 20.0013 45.5599 20.0013C46.886 20.0013 48.1577 20.5281 49.0954 21.4658C50.0331 22.4035 50.5599 23.6752 50.5599 25.0013C50.5599 26.3274 50.0331 27.5992 49.0954 28.5368C48.1577 29.4745 46.886 30.0013 45.5599 30.0013Z" fill="#B2B1FF"/>
<path id="Vector_3" d="M34.2932 33.2668C32.3876 31.453 29.8574 30.4414 27.2266 30.4414C24.5957 30.4414 22.0656 31.453 20.1599 33.2668L7.22656 46.2001V63.3335C7.23448 65.9832 8.29059 68.5221 10.1642 70.3958C12.0379 72.2694 14.5768 73.3256 17.2266 73.3335H63.8932C66.6099 73.3335 69.2099 72.2235 71.0932 70.2668L34.2932 33.2668Z" fill="#6563FF"/>
<path id="Vector_4" d="M73.8933 52.8586L60.9633 39.9286C59.0846 38.0604 56.5428 37.0117 53.8933 37.0117C51.2438 37.0117 48.702 38.0604 46.8233 39.9286L43.8633 42.8886L71.0799 70.2519C72.8866 68.4019 73.8966 65.9186 73.8933 63.3319V52.8586Z" fill="#D8D8FF"/>
</g>
</svg>
