<svg width="77" height="76" viewBox="0 0 77 76" fill="none" xmlns="http://www.w3.org/2000/svg">
<g id="image 314" opacity="0.5" clip-path="url(#clip0_1925_5579)">
<path id="Vector" d="M44.265 31.519C43.278 31.2482 42.439 30.5963 41.9326 29.7069C41.4262 28.8174 41.2938 27.7632 41.5647 26.7762C41.8355 25.7892 42.4874 24.9502 43.3768 24.4438C44.2663 23.9374 45.3205 23.8051 46.3075 24.0759C47.2945 24.3468 48.1335 24.9986 48.6399 25.8881C49.1463 26.7775 49.2786 27.8317 49.0078 28.8187C48.7369 29.8057 48.0851 30.6447 47.1956 31.1511C46.3062 31.6575 45.252 31.7899 44.265 31.519Z" fill="#D8D8FF"/>
<path id="Vector_2" d="M62.6774 17.8984L27.9431 8.36672C25.9692 7.8314 23.8638 8.09889 22.0865 9.11077C20.3092 10.1227 19.0046 11.7967 18.4575 13.7673L12.4253 35.7492L24.6933 28.7644C26.4822 27.8036 28.572 27.5675 30.5302 28.1048C32.4884 28.6422 34.1649 29.9119 35.2129 31.6512L40.3703 40.7686L43.1781 39.17C44.958 38.1632 47.064 37.9018 49.0361 38.443C51.0081 38.9842 52.6858 40.2839 53.7026 42.0581L60.6841 54.3279L68.078 27.384C68.6133 25.4102 68.3458 23.3047 67.334 21.5274C66.3221 19.7502 64.648 18.4455 62.6774 17.8984ZM44.2659 31.521C43.2789 31.2501 42.4399 30.5983 41.9335 29.7088C41.4271 28.8194 41.2948 27.7652 41.5657 26.7782C41.8365 25.7912 42.4884 24.9522 43.3778 24.4458C44.2673 23.9394 45.3214 23.8071 46.3085 24.0779C47.2955 24.3488 48.1345 25.0006 48.6409 25.8901C49.1473 26.7795 49.2796 27.8337 49.0087 28.8207C48.7379 29.8077 48.086 30.6467 47.1966 31.1531C46.3071 31.6595 45.253 31.7918 44.2659 31.521Z" fill="#B2B1FF"/>
<path id="Vector_3" d="M35.2134 31.6509C34.1654 29.9116 32.4889 28.6419 30.5307 28.1045C28.5725 27.5672 26.4827 27.8033 24.6938 28.7641L12.4258 35.7489L8.92632 48.5013C8.391 50.4752 8.65849 52.5806 9.67037 54.3579C10.6822 56.1352 12.3563 57.4398 14.3269 57.9869L49.0612 67.5186C51.0833 68.0735 53.2452 67.7784 55.0466 66.7067L35.2134 31.6509Z" fill="#6563FF"/>
<path id="Vector_4" d="M60.6851 54.3231L53.7022 42.0583C52.6854 40.284 51.0078 38.9843 49.0357 38.4432C47.0637 37.902 44.9576 38.1634 43.1777 39.1702L40.37 40.7687L55.0386 66.6945C56.7611 65.6865 58.0201 64.0445 58.546 62.1185L60.6851 54.3231Z" fill="#D8D8FF"/>
</g>
<defs>
<clipPath id="clip0_1925_5579">
<rect width="61.7459" height="61.7459" fill="white" transform="translate(16.8984) rotate(15.3452)"/>
</clipPath>
</defs>
</svg>
