<svg width="16" height="17" viewBox="0 0 16 17" fill="none" xmlns="http://www.w3.org/2000/svg">
<path id="Vector" d="M4.32419 6.00387L2.58672 7.74133H11.3657C11.5667 7.74133 11.7594 7.82117 11.9015 7.96327C12.0436 8.10537 12.1235 8.2981 12.1235 8.49906C12.1235 8.70002 12.0436 8.89275 11.9015 9.03486C11.7594 9.17696 11.5667 9.25679 11.3657 9.25679H2.58672L4.32419 10.9943C4.39656 11.0642 4.45428 11.1478 4.494 11.2402C4.53371 11.3327 4.55461 11.4321 4.55548 11.5327C4.55636 11.6333 4.53719 11.7331 4.49909 11.8262C4.46099 11.9193 4.40473 12.0039 4.33358 12.0751C4.26243 12.1462 4.17783 12.2025 4.08471 12.2406C3.99159 12.2787 3.89181 12.2979 3.7912 12.297C3.69059 12.2961 3.59116 12.2752 3.49872 12.2355C3.40627 12.1958 3.32266 12.1381 3.25276 12.0657L0.221852 9.03478C0.0798003 8.89268 0 8.69998 0 8.49906C0 8.29814 0.0798003 8.10544 0.221852 7.96335L3.25276 4.93244C3.32266 4.86007 3.40627 4.80234 3.49872 4.76263C3.59116 4.72292 3.69059 4.70202 3.7912 4.70114C3.89181 4.70027 3.99159 4.71944 4.08471 4.75754C4.17783 4.79564 4.26243 4.8519 4.33358 4.92305C4.40473 4.99419 4.46099 5.07879 4.49909 5.17192C4.53719 5.26504 4.55636 5.36482 4.55548 5.46543C4.55461 5.56604 4.53371 5.66547 4.494 5.75791C4.45428 5.85036 4.39656 5.93397 4.32419 6.00387ZM14.3967 0.164062H8.33484C8.13388 0.164063 7.94115 0.243894 7.79904 0.385996C7.65694 0.528097 7.57711 0.720828 7.57711 0.92179C7.57711 1.12275 7.65694 1.31548 7.79904 1.45758C7.94115 1.59969 8.13388 1.67952 8.33484 1.67952H13.6389V15.3186H8.33484C8.13388 15.3186 7.94115 15.3984 7.79904 15.5405C7.65694 15.6826 7.57711 15.8754 7.57711 16.0763C7.57711 16.2773 7.65694 16.47 7.79904 16.6121C7.94115 16.7542 8.13388 16.8341 8.33484 16.8341H14.3967C14.5976 16.8341 14.7903 16.7542 14.9325 16.6121C15.0746 16.47 15.1544 16.2773 15.1544 16.0763V0.92179C15.1544 0.720828 15.0746 0.528097 14.9325 0.385996C14.7903 0.243894 14.5976 0.164063 14.3967 0.164062Z" fill="#111111"/>
</svg>
