<svg width="24" height="25" viewBox="0 0 24 25" fill="none" xmlns="http://www.w3.org/2000/svg">
<g id="Group">
<path id="Path" fill-rule="evenodd" clip-rule="evenodd" d="M9.65304 19.1366L10.1793 20.3201C10.4989 21.0398 11.2125 21.5036 12 21.5036V21.5036C12.7875 21.5036 13.5012 21.0398 13.8208 20.3201L14.347 19.1366C14.5343 18.7167 14.8494 18.3666 15.2474 18.1362V18.1362C15.6478 17.9052 16.1111 17.8068 16.5709 17.8551L17.8585 17.9921C18.6415 18.075 19.3998 17.6887 19.7933 17.0067V17.0067C20.1872 16.3251 20.1425 15.4753 19.6792 14.8388L18.9169 13.7914C18.6455 13.4156 18.5004 12.9634 18.5027 12.4998V12.4998C18.5026 12.0376 18.649 11.5872 18.9209 11.2133L19.6832 10.1659C20.1465 9.52936 20.1913 8.67958 19.7973 7.99797V7.99797C19.4038 7.31595 18.6455 6.92974 17.8625 7.01256L16.5749 7.14962C16.1151 7.1979 15.6518 7.0995 15.2514 6.8685V6.8685C14.8526 6.63683 14.5374 6.28488 14.351 5.86308L13.8208 4.67959C13.5012 3.95984 12.7875 3.49609 12 3.49609V3.49609C11.2125 3.49609 10.4989 3.95984 10.1793 4.67959L9.65304 5.86308C9.4666 6.28488 9.15142 6.63683 8.75267 6.8685V6.8685C8.35219 7.0995 7.88891 7.1979 7.42911 7.14962L6.13758 7.01256C5.35456 6.92974 4.59625 7.31595 4.20277 7.99797V7.99797C3.80878 8.67958 3.85349 9.52936 4.31682 10.1659L5.07914 11.2133C5.351 11.5872 5.49739 12.0376 5.49731 12.4998V12.4998C5.49739 12.9621 5.351 13.4125 5.07914 13.7864L4.31682 14.8338C3.85349 15.4703 3.80878 16.3201 4.20277 17.0017V17.0017C4.59661 17.6833 5.35466 18.0694 6.13758 17.9871L7.42511 17.8501C7.88491 17.8018 8.34819 17.9002 8.74866 18.1312V18.1312C9.14891 18.3622 9.46555 18.7142 9.65304 19.1366V19.1366Z" stroke="#323232" stroke-width="1.5"/>
<circle id="Oval" cx="11.9997" cy="12.4997" r="2.6481" stroke="#323232" stroke-width="1.5" stroke-linecap="round" stroke-linejoin="round"/>
</g>
</svg>
