<svg width="190" height="221" viewBox="0 0 190 221" fill="none" xmlns="http://www.w3.org/2000/svg">
<path id="Subtract" fill-rule="evenodd" clip-rule="evenodd" d="M0.949168 184.588C0.417887 186.282 0.849526 188.136 2.11633 189.379C22.0508 208.938 49.3671 221 79.5007 221C140.528 221 190.001 171.527 190.001 110.5C190.001 49.4725 140.528 0 79.5007 0C73.2164 0 67.0546 0.524601 61.0568 1.5324C59.305 1.82674 57.8893 3.10296 57.3575 4.79784C56.2235 8.41232 59.5075 11.9157 63.2466 11.3076C68.5374 10.4473 73.9668 10 79.5007 10C135.005 10 180.001 54.9954 180.001 110.5C180.001 166.005 135.005 211 79.5007 211C52.2863 211 27.5983 200.183 9.5017 182.614C6.7826 179.974 2.08366 180.972 0.949168 184.588Z" fill="url(#paint0_linear_1946_4019)"/>
<defs>
<linearGradient id="paint0_linear_1946_4019" x1="147.644" y1="-17" x2="4.90856" y2="226.581" gradientUnits="userSpaceOnUse">
<stop stop-color="#4931A8"/>
<stop offset="1" stop-color="#4931A8" stop-opacity="0.29"/>
</linearGradient>
</defs>
</svg>
